<?xml version="1.0" encoding="utf-8"?>
<!-- Generator: Adobe Illustrator 15.1.0, SVG Export Plug-In . SVG Version: 6.00 Build 0)  -->
<!DOCTYPE svg PUBLIC "-//W3C//DTD SVG 1.1//EN" "http://www.w3.org/Graphics/SVG/1.1/DTD/svg11.dtd">
<svg version="1.1" xmlns="http://www.w3.org/2000/svg" xmlns:xlink="http://www.w3.org/1999/xlink" x="0px" y="0px"
	 width="244.333px" height="218.667px" viewBox="0 0 244.333 218.667" enable-background="new 0 0 244.333 218.667"
	 xml:space="preserve">
<g id="Drosselblende" display="none">
	<polygon display="inline" fill="#EDD330" points="19.503,39.814 111.173,39.814 111.173,6 133.162,6 133.162,39.814 
		225.177,39.814 225.177,134.162 209.886,134.162 209.827,151.098 207.81,160.15 201.542,160.15 199.521,150.817 199.647,134.162 
		133.417,134.162 133.166,168.033 111.423,168.033 111.423,134.162 44.942,134.162 44.958,151.378 43.031,160.13 36.626,160.13 
		35.014,151.068 35.139,134.162 19.503,134.162 	"/>
	<text transform="matrix(1 0 0 1 52.0493 171.8242)" display="inline" fill="#101111" font-family="'ArialMT'" font-size="20">5xDN</text>
	<polygon display="inline" fill="#101111" points="130.242,168.033 136.242,168.033 136.242,137.162 200.673,137.162 
		200.673,131.162 130.242,131.162 	"/>
	<polygon display="inline" fill="#101111" points="200.427,160.363 202.392,159.988 200.659,150.91 200.676,131.162 
		198.676,131.162 198.676,151.098 	"/>
	<g display="inline">
		<g>
			
				<line fill="none" stroke="#101111" stroke-width="2" stroke-miterlimit="10" x1="53.181" y1="149.598" x2="100.929" y2="149.598"/>
			<g>
				<polygon fill="#101111" points="54.64,154.556 46.004,149.57 54.64,144.584 				"/>
			</g>
			<g>
				<polygon fill="#101111" points="99.47,154.556 108.105,149.57 99.47,144.584 				"/>
			</g>
		</g>
	</g>
	<text transform="matrix(1 0 0 1 142.6206 171.8242)" display="inline" fill="#101111" font-family="'ArialMT'" font-size="20">5xDN</text>
	<g display="inline">
		<g>
			
				<line fill="none" stroke="#101111" stroke-width="2" stroke-miterlimit="10" x1="143.752" y1="149.598" x2="191.5" y2="149.598"/>
			<g>
				<polygon fill="#101111" points="145.211,154.556 136.576,149.57 145.211,144.584 				"/>
			</g>
			<g>
				<polygon fill="#101111" points="190.041,154.556 198.676,149.57 190.041,144.584 				"/>
			</g>
		</g>
	</g>
	<polygon display="inline" fill="#101111" points="35.755,160.363 34.022,151.285 34.004,131.162 36.004,131.162 36.004,151.098 
		37.72,159.988 	"/>
	<rect x="19.503" y="131.162" display="inline" fill="#101111" width="16.501" height="6"/>
	<polygon display="inline" fill="#101111" points="208.925,160.363 210.659,151.285 210.676,131.162 208.676,131.162 
		208.676,151.098 206.96,159.988 	"/>
	<rect x="208.676" y="131.162" display="inline" fill="#101111" width="16.501" height="6"/>
	<polygon display="inline" fill="#101111" points="114.439,168.033 108.439,168.033 108.439,137.162 44.007,137.162 44.007,131.162 
		114.439,131.162 	"/>
	<polygon display="inline" fill="#101111" points="44.253,160.363 42.289,159.988 44.022,150.91 44.004,131.162 46.004,131.162 
		46.004,151.098 	"/>
	<text transform="matrix(1 0 0 1 110.7485 208.3584)" display="inline" fill="#101111" font-family="'ArialMT'" font-size="20">∆p</text>
	<g display="inline">
		<g>
			
				<line fill="none" stroke="#101111" stroke-width="2" stroke-miterlimit="10" x1="50.033" y1="191.142" x2="194.439" y2="191.142"/>
			<g>
				<polygon fill="#101111" points="52.075,198.083 39.986,191.104 52.075,184.123 				"/>
			</g>
			<g>
				<polygon fill="#101111" points="192.396,198.083 204.486,191.104 192.396,184.123 				"/>
			</g>
		</g>
	</g>
	
		<line display="inline" fill="none" stroke="#101111" stroke-width="2" stroke-miterlimit="10" x1="39.986" y1="160.363" x2="39.986" y2="199.642"/>
	
		<line display="inline" fill="none" stroke="#101111" stroke-width="2" stroke-miterlimit="10" x1="204.486" y1="160.363" x2="204.486" y2="199.642"/>
</g>
<g id="Messblende">
	<polygon fill="#EDD330" points="19.503,39.814 111.173,39.814 111.173,6 133.162,6 133.162,39.814 225.177,39.814 225.177,134.162 
		157.646,134.162 157.586,151.098 155.57,160.15 149.302,160.15 147.281,150.817 147.407,134.162 133.417,134.162 133.166,168.033 
		111.423,168.033 111.423,134.162 97.182,134.162 97.198,151.378 95.271,160.13 88.867,160.13 87.254,151.068 87.379,134.162 
		19.503,134.162 	"/>
	<polygon fill="#101111" points="130.242,168.033 136.242,168.033 136.242,137.162 148.433,137.162 148.433,131.162 
		130.242,131.162 	"/>
	<polygon fill="#101111" points="148.187,160.363 150.152,159.988 148.418,150.91 148.436,131.162 146.436,131.162 146.436,151.098 
			"/>
	<polygon fill="#101111" points="87.996,160.363 86.262,151.285 86.245,131.162 88.245,131.162 88.245,151.098 89.96,159.988 	"/>
	<rect x="19.503" y="131.162" fill="#101111" width="68.741" height="6"/>
	<polygon fill="#101111" points="156.685,160.363 158.418,151.285 158.436,131.162 156.436,131.162 156.436,151.098 154.72,159.988 
			"/>
	<rect x="156.436" y="131.162" fill="#101111" width="68.741" height="6"/>
	<polygon fill="#101111" points="114.439,168.033 108.439,168.033 108.439,137.162 96.248,137.162 96.248,131.162 114.439,131.162 	
		"/>
	<polygon fill="#101111" points="96.494,160.363 94.529,159.988 96.262,150.91 96.245,131.162 98.245,131.162 98.245,151.098 	"/>
	<text transform="matrix(1 0 0 1 110.7485 208.3584)" fill="#101111" font-family="'ArialMT'" font-size="20">∆p</text>
	<g>
		<g>
			
				<line fill="none" stroke="#101111" stroke-width="2" stroke-miterlimit="10" x1="102.273" y1="191.142" x2="142.199" y2="191.142"/>
			<g>
				<polygon fill="#101111" points="104.315,198.083 92.226,191.104 104.315,184.123 				"/>
			</g>
			<g>
				<polygon fill="#101111" points="140.156,198.083 152.246,191.104 140.156,184.123 				"/>
			</g>
		</g>
	</g>
	<line fill="none" stroke="#101111" stroke-width="2" stroke-miterlimit="10" x1="92.226" y1="160.363" x2="92.226" y2="199.642"/>
	
		<line fill="none" stroke="#101111" stroke-width="2" stroke-miterlimit="10" x1="152.246" y1="160.363" x2="152.246" y2="199.642"/>
</g>
<g id="Allg_vorne">
	<text transform="matrix(1 0 0 1 41.7593 92.0869)" fill="#101111" font-family="'ArialMT'" font-size="20">D</text>
	<text transform="matrix(1 0 0 1 108.9556 92.0869)" fill="#101111" font-family="'ArialMT'" font-size="20">d</text>
	<text transform="matrix(1 0 0 1 196.5532 92.0869)" fill="#101111" font-family="'ArialMT'" font-size="20">Q</text>
	<g>
		<g>
			
				<line fill="none" stroke="#101111" stroke-width="2" stroke-miterlimit="10" x1="148.503" y1="87.017" x2="182.913" y2="87.017"/>
			<g>
				<polygon fill="#101111" points="180.87,93.958 192.959,86.979 180.87,79.998 				"/>
			</g>
		</g>
	</g>
	<g>
		<g>
			<line fill="none" stroke="#101111" stroke-width="2" stroke-miterlimit="10" x1="61.069" y1="121.115" x2="61.069" y2="52.607"/>
			<g>
				<polygon fill="#101111" points="68.01,119.073 61.031,131.162 54.05,119.073 				"/>
			</g>
			<g>
				<polygon fill="#101111" points="68.01,54.65 61.031,42.561 54.05,54.65 				"/>
			</g>
		</g>
	</g>
	<g>
		<g>
			<line fill="none" stroke="#101111" stroke-width="2" stroke-miterlimit="10" x1="99.432" y1="95.161" x2="99.432" y2="78.872"/>
			<g>
				<polygon fill="#101111" points="104.39,93.702 99.405,102.337 94.418,93.702 				"/>
			</g>
			<g>
				<polygon fill="#101111" points="104.39,80.331 99.405,71.695 94.418,80.331 				"/>
			</g>
		</g>
	</g>
	<polygon fill="#101111" points="117.949,6 117.949,71.491 126.908,62.532 126.908,6 	"/>
	<polygon fill="#101111" points="117.949,168.033 117.949,102.542 126.908,111.501 126.908,168.033 	"/>
	<polygon fill="#101111" points="114.439,42.871 19.503,42.871 19.503,36.871 108.439,36.871 108.439,6 114.439,6 	"/>
	<polygon fill="#101111" points="225.177,42.871 130.242,42.871 130.242,6 136.242,6 136.242,36.871 225.177,36.871 	"/>
	<line fill="none" stroke="#101111" stroke-width="2" stroke-miterlimit="10" x1="117.949" y1="70.356" x2="94.331" y2="70.356"/>
	<line fill="none" stroke="#101111" stroke-width="2" stroke-miterlimit="10" x1="117.949" y1="103.677" x2="94.331" y2="103.677"/>
</g>
</svg>
